<?xml version="1.0" standalone="no"?>
<!DOCTYPE svg PUBLIC "-//W3C//DTD SVG 20010904//EN"
 "http://www.w3.org/TR/2001/REC-SVG-20010904/DTD/svg10.dtd">
<svg version="1.0" xmlns="http://www.w3.org/2000/svg"
 width="1120.000000pt" height="1120.000000pt" viewBox="0 0 1120.000000 1120.000000"
 preserveAspectRatio="xMidYMid meet">
<metadata>
Created by potrace 1.14, written by Peter Selinger 2001-2017
</metadata>
<g transform="translate(0.000000,1120.000000) scale(0.100000,-0.100000)"
fill="#000000" stroke="none">
<path d="M1349 10549 c-277 -40 -537 -168 -738 -364 -200 -195 -319 -413 -365
-675 -28 -153 -75 -694 -121 -1390 -14 -206 -32 -472 -41 -590 -20 -278 -17
-357 19 -432 76 -157 236 -247 387 -218 122 23 156 48 643 464 158 135 301
253 318 262 34 17 89 11 89 -11 0 -7 -63 -174 -141 -371 -261 -667 -312 -861
-326 -1239 -11 -311 32 -581 143 -914 l66 -196 -12 -320 c-6 -176 -18 -454
-25 -618 -14 -311 -12 -364 23 -452 48 -121 305 -522 465 -728 288 -369 634
-706 1024 -998 350 -263 667 -420 958 -474 50 -9 102 -21 116 -27 14 -5 59
-46 99 -91 246 -276 525 -438 893 -519 100 -23 114 -23 757 -23 596 0 664 2
755 19 227 42 456 137 635 264 56 40 153 125 236 209 78 78 152 144 165 147
13 3 70 15 127 26 180 36 346 108 614 267 342 202 602 405 898 702 258 258
449 493 653 803 120 182 264 432 278 480 7 27 2 219 -16 672 -29 711 -33 638
44 856 50 144 83 269 112 435 21 114 24 162 24 395 0 296 -10 384 -70 615 -43
165 -64 226 -247 698 -82 214 -147 391 -144 395 13 12 77 4 104 -14 15 -10
146 -119 292 -244 519 -443 528 -449 643 -470 199 -37 407 128 423 336 4 40
-11 311 -35 644 -23 316 -50 706 -62 865 -41 581 -69 807 -119 957 -146 437
-556 781 -1027 863 -110 19 -316 19 -426 0 -87 -15 -198 -52 -361 -120 -138
-58 -254 -78 -411 -72 -88 3 -151 11 -195 25 -225 68 -414 121 -475 133 -103
21 -359 19 -462 -4 -318 -68 -576 -232 -757 -480 -41 -56 -90 -119 -109 -139
l-35 -38 -1040 0 c-1204 0 -1052 -18 -1154 133 -301 438 -838 638 -1363 506
-44 -11 -157 -45 -250 -74 -324 -102 -472 -98 -746 20 -146 63 -265 99 -373
114 -88 13 -274 13 -357 0z m2196 -2634 c121 -32 274 -120 344 -200 146 -166
153 -349 16 -426 -273 -153 -764 102 -792 412 -10 101 44 175 154 215 52 18
205 17 278 -1z m4390 -7 c22 -7 61 -33 87 -58 38 -37 47 -54 53 -93 25 -169
-165 -401 -391 -476 -185 -61 -373 -44 -450 41 -63 68 -74 179 -26 266 80 151
253 285 421 327 67 17 246 13 306 -7z m-4305 -1383 c42 -22 70 -74 70 -130 0
-88 -56 -145 -142 -145 -108 0 -182 116 -133 209 27 53 71 81 126 81 28 0 63
-7 79 -15z m4070 0 c42 -22 70 -74 70 -131 0 -88 -57 -144 -147 -144 -57 0
-101 27 -128 81 -32 60 -13 133 45 183 25 20 42 26 81 26 28 0 63 -7 79 -15z
m-3348 -1522 c3 -317 3 -318 30 -392 15 -40 44 -99 64 -130 41 -62 594 -611
682 -678 73 -54 139 -86 238 -114 43 -13 87 -30 97 -38 16 -13 17 -48 17 -473
0 -282 -4 -466 -10 -478 -5 -10 -63 -54 -127 -97 -1299 -876 -1217 -823 -1290
-835 -102 -16 -275 -5 -352 22 -129 46 -263 159 -432 366 -145 178 -281 414
-347 605 -90 256 -110 561 -56 849 34 186 223 794 304 981 172 396 417 589
830 653 58 9 125 23 150 31 42 14 161 42 187 44 9 1 13 -79 15 -316z m2732
267 c366 -82 448 -111 582 -206 84 -59 190 -176 246 -270 148 -252 343 -841
414 -1252 23 -130 25 -166 21 -312 -8 -246 -52 -418 -172 -665 -143 -297 -397
-614 -567 -708 -35 -20 -99 -48 -143 -63 -72 -25 -94 -28 -215 -28 -127 -1
-139 1 -193 26 -32 15 -144 87 -249 159 -104 72 -388 264 -630 426 -303 204
-446 305 -459 327 -18 29 -19 56 -19 477 0 346 3 449 13 463 7 9 52 28 101 42
181 51 221 82 597 455 433 430 419 400 419 876 0 256 2 303 14 303 8 0 116
-23 240 -50z m-1394 -2821 c25 -18 245 -167 490 -332 245 -165 497 -336 560
-380 202 -140 300 -183 447 -196 l72 -6 -67 -94 c-224 -316 -524 -518 -856
-576 -210 -36 -1077 -46 -1371 -15 -413 44 -738 245 -988 613 l-49 72 81 6
c97 7 199 43 293 102 63 39 627 420 1038 701 96 65 188 125 205 133 42 19 92
9 145 -28z"/>
</g>
</svg>
