<?xml version="1.0" encoding="utf-8"?>
<!-- Generator: Adobe Illustrator 28.0.0, SVG Export Plug-In . SVG Version: 6.00 Build 0)  -->
<svg version="1.1" id="Layer_1" xmlns="http://www.w3.org/2000/svg" xmlns:xlink="http://www.w3.org/1999/xlink" x="0px" y="0px"
	 viewBox="0 0 560 560" style="enable-background:new 0 0 560 560;" xml:space="preserve">
<style type="text/css">
	.st0{fill:#BDBDBD;}
	.st1{fill:#979797;}
	.st2{fill:#494A47;}
	.st3{fill:#D78955;}
	.st4{fill:#B9703E;}
	.st5{fill:#333331;}
	.st6{fill:#FAFAFA;}
</style>
<g id="gH9HqS.tif">
	<g>
		<path class="st0" d="M251.1,529.9c0-0.3,0-0.6-0.1-0.9c1.9-2.2,4.6-1.9,7-1.9c14.2-0.1,28.4-0.1,42.7,0c2.5,0,5.1-0.3,7,1.9
			c0,0.3-0.1,0.6-0.1,0.9C288.9,529.9,270,529.9,251.1,529.9z"/>
		<path class="st1" d="M3.7,201.2l-0.5,0.2l-0.4-0.3c0-3.6,0-7.3,0-10.9c0.3-0.1,0.6-0.2,0.9-0.1C6.4,193.8,6.4,197.5,3.7,201.2z"/>
		<path d="M3.7,201.2c0-3.7,0-7.4,0.1-11.1c2.6-34,4.1-68.1,7.9-102c4.8-42.6,53-68.7,91.5-50.2c11.2,5.4,21.8,6.4,33.4,2.8
			c7.6-2.4,15.1-5.2,23-6.4c25.8-4.1,50.6,7.2,64.2,29.4c1.7,2.8,3.5,4,6.8,4c32.5-0.1,65-0.1,97.5,0c3.2,0,5.2-0.8,6.9-3.7
			c15.3-25.3,44.8-36.3,73-27.5c3.6,1.1,7.3,2,10.9,3.3c13.2,4.7,25.4,3.7,38.6-2.5c37.7-17.5,84.8,9.2,89.8,50.6
			c2.8,22.8,3.8,45.9,5.5,68.9c0.9,12.5,1.7,25,2.7,37.4c0.7,8.6-2.1,15.3-9.7,19.7c-7.2,4.1-14.9,3.1-22.1-3
			c-11.4-9.6-22.7-19.2-34-28.9c-2.1-1.8-4.2-3.5-7.9-2.4c2.8,7.3,5.7,14.6,8.5,21.9c5.5,14.3,11.6,28.4,13.9,43.9
			c3.4,22.8,0.9,44.8-7.5,66.2c-1.2,2.9-1.8,5.8-1.6,8.9c0.8,19.2,1.6,38.4,2.3,57.6c0.1,2.4,0.1,4.6-1.1,6.9
			C471.6,430.3,438,466.8,391.2,490c-6.5,3.2-13.5,5.4-20.7,6.3c-2.7,0.4-4.6,1.5-6.3,3.6c-14.7,17.6-33.5,27.2-56.4,29
			c-18.9,0-37.8,0-56.7,0c-22.8-1.9-41.6-11.6-56.3-29.2c-1.3-1.6-2.6-2.8-4.8-3.2c-18-2.7-33.6-11.1-48.1-21.5
			c-32.1-23.1-58.2-51.7-77.2-86.5c-2.2-4.1-3.2-8.2-3-12.9c0.9-18.7,1.6-37.3,2.4-56c0.1-2.6-0.3-4.9-1.2-7.4
			c-12.2-31-12.5-62.2-0.7-93.3c4.9-13,10.1-25.9,15.2-39.1c-3.3-1.6-5.5-0.1-7.7,1.8c-11.6,9.9-23.1,19.9-34.9,29.6
			C22.8,221,8,216.1,3.7,201.2z"/>
		<path class="st2" d="M389.5,44.2c9.9-0.2,18.7,4.2,28,6.4c5.3,1.3,10.6,2.5,15.9,3.4c9.1,1.6,17.1-1.8,25-5.5
			c28.5-13.4,60.9-1.6,74.1,26.9c3.2,6.8,4.5,14.1,5.1,21.5c1.3,18.2,2.8,36.4,4.1,54.6c1.1,15.2,2.3,30.3,3.1,45.5
			c0.2,3.1-1.4,5.9-4.6,7.4c-3.5,1.7-6.3,0.7-9-1.5c-11.4-9.6-23.1-18.8-33.9-28.9c-4.9-4.6-10.1-5.4-16.1-6.2
			c-22-2.8-40.8-13.4-58.6-25.7c-22.5-15.5-42.6-33.8-61.7-53.1c-5.1-5.1-9.8-10.7-14.9-15.8c-2.2-2.2-1.9-3.7-0.3-6
			C356.3,51.9,371.3,44.9,389.5,44.2z"/>
		<path class="st3" d="M341.7,293.8c9.3,2.1,18.8,3.9,28,6.5c14.1,3.9,23.7,13.7,29.2,26.6c8.3,19.3,14.9,39.3,18,60.2
			c1.6,10.4,0.3,20.7-2.6,30.7c-4.9,16.3-14,30.2-25.4,42.6c-5.8,6.3-13.3,10-21.8,11.4c-6.6,1.1-12.7,0.4-18.6-3.7
			c-19.8-13.7-39.9-27.1-59.9-40.5c-2.7-1.8-3.8-3.7-3.7-7c0.2-13.1,0.2-26.1,0-39.2c0-3,0.7-4.4,4-5.1c6.9-1.3,12.9-4.7,18-9.6
			c8.4-8.2,16.8-16.5,25.3-24.8c6.4-6.3,9.8-13.8,9.6-22.9C341.6,310.8,341.7,302.7,341.7,293.8z"/>
		<path class="st4" d="M362.9,483c-13.2,21.1-30.9,33.4-54.6,34.7c-19.2,1.1-38.5,1.1-57.6,0c-23.6-1.4-41.3-13.8-54.3-34.8
			c10.2,0.9,17.2-3.7,24.3-8.5c18.1-12.4,36.4-24.5,54.4-37c3.3-2.3,5.6-2.5,9.1-0.1c18.8,13,37.9,25.4,56.7,38.5
			C347.2,480.3,353.8,483.4,362.9,483z"/>
		<path class="st2" d="M491.8,239.2c-5.2-20.8-14.8-40-22-60.1c-0.9-2.4-3-2.9-5.1-3.5c-11-3.3-21.4-8-31.3-13.7
			c-29.8-17.2-55.1-39.8-79.3-64c-6.1-6.2-11.3-13.2-18-18.8c-1.5-1.5-3.4-0.9-5.2-0.9c-29.8,0-59.5,0.5-89.2-0.3
			c-12.8-0.3-23.6,1.1-30.4,13.2c-0.3,0.5-0.8,0.8-1.1,1.2c-16.2,16.9-33.2,32.9-51.7,47.2c-18.9,14.7-38.8,28-61.9,35.2
			c-4.7,1.5-7.2,3.8-8.9,8.3c-4.7,12.7-9.8,25.3-14.7,37.9c-11.2,28.9-11.6,57.8-0.3,86.7c1.5,3.8,2.2,7.5,2.1,11.6
			c-0.5,13.4-0.8,26.8-1.2,40.2c-0.1,3.3-0.3,6.5-0.8,9.7c-0.8,5.7-0.5,11.3,2.7,16.8c20.8,35.9,48.1,65.5,83.4,87.5
			c7.7,4.8,15.9,8.9,25.3,10.1c-5.4-5.4-13-7.3-18.6-12.3c-5.7-5.2-10.2-11.2-14.6-17.4c-2.1-3.4-4.2-6.8-6.4-10.1
			c-12.2-19-15.8-40.2-12.6-62c2.7-18.8,9.3-36.8,16.2-54.5c7.6-19.5,21.1-33.6,42.5-38.5c7.6-1.7,15.2-3.2,22.8-4.9
			c6.3-1.4,12.4-2.8,17.7-7.3c5.3-4.5,12-6.3,19.1-6.9c17.4-1.5,34.8-0.6,52.2-0.6c10,0,20,1.7,27.9,8.8c2.7,2.4,5.6,3.8,9,4.5
			c7.8,1.6,15.5,3.6,23.3,5c25.2,4.3,41.1,19.4,49.6,42.8c4.8,13.2,8.9,26.8,12.8,40.3c3.8,13.5,4.3,27.3,2,41.3
			c-2.9,17.8-12.1,32.4-22.1,46.7c-6.6,9.4-14.7,16.9-25.5,21.3c-1.9,0.8-4.3,1.2-4.2,4.6c8.3-1.9,15.9-5.2,23-9.4
			c35.8-21.7,63.3-51.5,84.7-87.2c1.6-2.7,3.7-5.5,3.6-9c-0.6-15.6-1.4-31.1-1.8-46.7c-0.3-8.6-1.1-17,2.3-25.6
			C495.6,284.6,497.5,262.1,491.8,239.2z"/>
		<path class="st2" d="M228.8,302.8c-2.2-11.5,9.3-21.3,19.8-22.2c20.6-1.7,41.3-1.7,61.9,0c11.2,1,21.7,11,19.7,21.3
			c-4.5-1.8-8.1-5.5-13.1-6.1c-13.3-1.6-23.6,7.8-24.7,22.1c-0.9,12.2,2.4,23,10.6,32.1c2,2.3,2,3.4-0.1,5.6
			c-12.2,13.4-32.4,15.8-46.2,0c-2.1-2.4-2.3-3.6-0.1-6.2c9.3-11.1,13.1-23.6,8.7-37.8c-5.1-16.6-21.2-21.2-34.7-10.1
			C230.1,301.9,229.5,302.3,228.8,302.8z"/>
		<path class="st3" d="M274.1,380.5c0-2.7-0.8-3.7-3.6-4.2c-6.9-1.3-12.9-4.6-18-9.5c-8.7-8.5-17.4-17-26-25.5
			c-6.2-6.2-9.3-13.7-9.2-22.5c0.1-8.2,0-16.4,0-24.8c-3.6,1-7.5,1.1-10.9,2.9c-22.5,2.6-39.1,9.1-50.1,38.9
			c-4.3,11.7-7.8,23.7-11.2,35.7c-10.2,36,2.5,65.5,27.4,90.8c7.7,7.8,17.9,11.5,29.3,9.4c0.5-0.1,1.1-0.2,1.6-0.3
			c1.8,0.2,3.1-0.7,4.5-1.6c21-14.2,42.1-28.4,63.1-42.6c2-1.3,3-2.6,3-5.2C274,408.1,274,394.3,274.1,380.5z"/>
		<path class="st2" d="M213.4,67.6c-6.9-10.7-16.7-17.4-28.7-21.1c-11.9-3.7-23.5-2.4-35.1,1.7c-17.9,6.4-35.5,9.5-53.2-1.3
			c-6.3-3.8-14.1-4.4-21.7-3.5c-20,0.6-35.1,9.9-45.5,26.7c-6.3,10.1-7.6,21.5-8.1,33.3c-0.8,17.1-2.7,34.1-4,51.2
			c-1.1,13.8-2,27.7-2.9,41.6c-0.2,3.3,0.7,6.1,3.6,8c2.9,1.9,6,2,8.6-0.1c2.8-2.3,6.2-3.8,8.1-7.1c0,0,0,0,0,0
			c1.2-0.8,2.5-1.4,3.6-2.4c8.8-7.5,17.6-15.1,26.3-22.7c1.9-1.7,3.8-3.3,6.6-3.4c17.9-0.6,33.8-7.2,49-16
			c35.9-20.9,65.4-49.5,93.5-79.7C215.2,70.7,214.6,69.4,213.4,67.6z"/>
		<path class="st5" d="M256.3,321.2c-0.6,8-2.5,14.7-7.1,20.4c-2.2,2.8-4.1,3.7-6.8,0.5c-3.5-4.2-7.9-7.4-11-12
			c-2.1-3.2-2.5-6.2-1.1-9.7c1.8-4.7,4.7-8.6,8.6-11.7c5.3-4.1,11.8-2.5,15.1,3.4C255.7,315.3,255.3,318.8,256.3,321.2z"/>
		<path class="st5" d="M303.4,321.6c-0.3-2.7,0.2-5.9,1.5-8.9c2.7-6.4,9.7-8.2,15.3-3.9c4.1,3.2,7,7.2,8.8,12.1
			c1.7,4.5,0.2,8.2-2.8,11.4c-3.3,3.6-6.9,6.9-10.3,10.4c-1.6,1.7-2.6,1.6-4.4,0C306.5,338.1,303.4,330.6,303.4,321.6z"/>
		<path d="M188.9,208.7c-21.6-0.1-39.6-13.1-43.6-28.9c-2.9-11.4,2.5-21.6,13.6-25.5c11.3-4,21.8-1.5,31.9,3.8
			c4.7,2.4,8.8,5.7,12.3,9.7c6.8,7.9,10.4,16.8,6.4,27.1C205.3,205.7,195.9,208.4,188.9,208.7z"/>
		<path d="M369.8,208.7c-6.4-0.3-14.6-3-19.3-11.8c-4.5-8.4-2.6-16.5,2-24.2c8-13.3,27-21.8,41.4-19.9c19.7,2.7,27.5,21.7,14.4,38.7
			C400,202.1,386.2,208.7,369.8,208.7z"/>
		<path d="M381,269.8c-13.6-0.1-24.3-11-24.2-24.7c0.1-12.8,11.6-24.2,24.4-24.3c13.5-0.1,24.7,11.3,24.6,25.1
			C405.7,259.7,395.1,269.8,381,269.8z"/>
		<path d="M177.4,269.8c-13.2-0.1-24.3-11.2-24.2-24.2c0.1-13.4,11.9-25,25.2-24.7c13.3,0.3,23.9,11.6,23.8,25.2
			C202.1,259.8,191.6,269.9,177.4,269.8z"/>
		<path class="st3" d="M185.2,197.8c-12.3-0.1-25.5-9-28.9-19.4c-2.2-6.8,0.7-12.3,7.6-14.2c12.5-3.6,30.3,5.3,35.2,17.4
			C202.9,191.2,197.2,197.9,185.2,197.8z"/>
		<path class="st3" d="M375.2,197.9c-7-0.1-12.2-1-15.1-6.3c-2.9-5.4-0.6-10.4,2.7-14.6c7.8-9.8,18-15.1,30.8-13.1
			c9.3,1.5,12.8,8.5,8.4,16.9C396,192,385.9,196.8,375.2,197.9z"/>
		<path class="st6" d="M388.5,240.5c-0.1,4-3.5,7.2-7.4,7.1c-3.9-0.2-7.1-3.6-6.9-7.6c0.1-4,3.6-7.2,7.4-7.1
			C385.5,233,388.6,236.4,388.5,240.5z"/>
		<path class="st6" d="M185,240.1c0.1,4.1-3.1,7.4-7.1,7.4c-3.9,0-7.3-3.3-7.4-7.2c-0.1-3.9,3.3-7.4,7.2-7.4
			C181.7,232.8,185,236.1,185,240.1z"/>
	</g>
</g>
</svg>
