<?xml version="1.0" encoding="UTF-8"?>
<svg xmlns="http://www.w3.org/2000/svg" version="1.1" viewBox="0 0 1775.1 500">
  <defs>
    <style>
      .cls-1 {
      fill: #b9703e;
      }

      .cls-2 {
      fill: #bdbdbd;
      }

      .cls-3 {
      fill: #bc4749;
      }

      .cls-4 {
      fill: #d78955;
      }

      .cls-5 {
      fill: #979797;
      }

      .cls-6 {
      fill: #494a47;
      }

      .cls-7 {
      fill: #fafafa;
      }

      .cls-8 {
      fill: #333331;
      }
    </style>
  </defs>
  <!-- Generator: Adobe Illustrator 28.6.0, SVG Export Plug-In . SVG Version: 1.2.0 Build 709)  -->
  <g>
    <g id="Layer_1">
      <g>
        <g id="gH9HqS.tif">
          <g>
            <path class="cls-2"
              d="M249.3,500c0-.3,0-.6,0-.9,1.9-2.2,4.6-1.9,7.1-1.9,14.3,0,28.5,0,42.8,0,2.5,0,5.1-.3,7.1,1.9,0,.3,0,.6,0,.9h-56.8Z" />
            <path class="cls-5"
              d="M.9,170.1l-.5.2-.4-.3v-10.9c.3-.1.6-.2.9,0,2.6,3.7,2.7,7.4,0,11.1Z" />
            <path
              d="M.9,170.1c0-3.7,0-7.4,0-11.1,2.6-34.1,4.2-68.4,8-102.3C13.7,13.8,62.1-12.4,100.8,6.2c11.3,5.4,21.9,6.5,33.6,2.8,7.6-2.4,15.1-5.2,23.1-6.4,25.9-4.1,50.8,7.3,64.4,29.5,1.7,2.8,3.5,4,6.8,4,32.6-.1,65.2-.1,97.8,0,3.2,0,5.2-.8,7-3.7,15.4-25.4,45-36.4,73.3-27.6,3.6,1.1,7.4,2,11,3.3,13.3,4.7,25.4,3.7,38.7-2.5,37.9-17.6,85.1,9.2,90.1,50.8,2.8,22.9,3.8,46.1,5.5,69.1,1,12.5,1.7,25.1,2.7,37.6.7,8.6-2.1,15.4-9.7,19.7-7.3,4.1-15,3.1-22.2-3-11.4-9.6-22.8-19.3-34.1-29-2.1-1.8-4.2-3.5-7.9-2.4,2.9,7.3,5.7,14.6,8.5,22,5.5,14.4,11.6,28.6,14,44,3.4,22.9.9,45-7.5,66.4-1.2,3-1.8,5.8-1.6,9,.8,19.3,1.6,38.6,2.3,57.9,0,2.4.1,4.7-1.1,6.9-24.8,45.6-58.6,82.1-105.5,105.5-6.5,3.2-13.5,5.4-20.8,6.3-2.7.4-4.6,1.5-6.3,3.6-14.8,17.6-33.7,27.3-56.6,29.1-19,0-38,0-57,0-22.9-2-41.8-11.6-56.5-29.3-1.3-1.6-2.6-2.8-4.8-3.2-18.1-2.7-33.8-11.1-48.3-21.6-32.2-23.2-58.4-51.9-77.5-86.8-2.3-4.1-3.2-8.3-3-13,.9-18.7,1.6-37.5,2.4-56.2.1-2.6-.3-5-1.3-7.4-12.3-31.1-12.5-62.4-.7-93.7,4.9-13.1,10.1-26,15.3-39.2-3.3-1.6-5.5-.1-7.8,1.8-11.6,9.9-23.2,20-35,29.7-12,9.8-26.9,4.9-31.2-10.1Z" />
            <path class="cls-6"
              d="M388.1,12.4c9.9-.2,18.8,4.2,28.1,6.4,5.3,1.3,10.6,2.5,15.9,3.5,9.1,1.6,17.2-1.8,25.1-5.5,28.6-13.4,61.1-1.6,74.4,27,3.2,6.8,4.6,14.1,5.1,21.6,1.3,18.3,2.8,36.6,4.1,54.8,1.1,15.2,2.3,30.4,3.1,45.6.2,3.2-1.4,5.9-4.6,7.5-3.5,1.7-6.3.7-9-1.5-11.4-9.6-23.1-18.8-34-29-4.9-4.6-10.1-5.5-16.1-6.2-22.1-2.8-40.9-13.5-58.8-25.8-22.6-15.5-42.7-33.9-61.9-53.3-5.1-5.2-9.8-10.8-15-15.9-2.2-2.2-1.9-3.7-.3-6,10.6-15.5,25.7-22.4,44-23.2Z" />
            <path class="cls-4"
              d="M340.2,263c9.4,2.1,18.9,3.9,28.1,6.5,14.1,4,23.8,13.8,29.3,26.7,8.4,19.4,15,39.4,18.1,60.4,1.6,10.4.3,20.8-2.6,30.8-4.9,16.3-14.1,30.3-25.5,42.7-5.8,6.4-13.3,10.1-21.9,11.4-6.6,1.1-12.8.4-18.7-3.7-19.9-13.8-40-27.2-60.2-40.6-2.7-1.8-3.8-3.8-3.7-7.1.2-13.1.2-26.2,0-39.3,0-3,.7-4.5,4-5.1,6.9-1.3,13-4.7,18-9.6,8.5-8.3,16.9-16.6,25.4-24.9,6.4-6.3,9.8-13.8,9.6-22.9-.2-8.2,0-16.4,0-25.3Z" />
            <path class="cls-1"
              d="M361.4,453c-13.3,21.2-31,33.5-54.8,34.8-19.2,1.1-38.6,1.1-57.9,0-23.7-1.4-41.4-13.8-54.5-34.9,10.2.9,17.3-3.7,24.4-8.6,18.1-12.5,36.5-24.6,54.6-37.1,3.3-2.3,5.6-2.5,9.1-.1,18.9,13,38.1,25.5,56.9,38.6,6.5,4.5,13.1,7.6,22.2,7.3Z" />
            <path class="cls-6"
              d="M490.9,208.2c-5.2-20.9-14.8-40.2-22.1-60.3-.9-2.4-3-2.9-5.1-3.6-11-3.3-21.4-8-31.4-13.8-29.9-17.3-55.3-40-79.6-64.2-6.2-6.2-11.3-13.3-18.1-18.9-1.5-1.5-3.4-.9-5.2-.9-29.9,0-59.7.5-89.6-.3-12.8-.3-23.7,1.1-30.6,13.2-.3.5-.8.8-1.1,1.2-16.3,16.9-33.3,33-51.9,47.4-19,14.7-38.9,28.1-62.2,35.4-4.7,1.5-7.2,3.8-8.9,8.3-4.7,12.8-9.8,25.4-14.8,38.1-11.2,29-11.6,58-.3,87.1,1.5,3.8,2.2,7.6,2.1,11.6-.5,13.4-.8,26.9-1.2,40.3,0,3.3-.3,6.5-.8,9.7-.8,5.8-.5,11.4,2.7,16.8,20.9,36,48.3,65.7,83.7,87.8,7.7,4.8,15.9,9,25.4,10.1-5.4-5.4-13.1-7.3-18.7-12.4-5.7-5.2-10.3-11.2-14.7-17.4-2.1-3.4-4.2-6.8-6.4-10.2-12.3-19.1-15.9-40.3-12.7-62.3,2.7-18.9,9.3-37,16.3-54.7,7.7-19.6,21.2-33.7,42.7-38.6,7.6-1.7,15.3-3.2,22.9-4.9,6.3-1.4,12.4-2.8,17.7-7.4,5.3-4.5,12-6.4,19.1-7,17.5-1.5,34.9-.6,52.4-.6,10,0,20.1,1.7,28,8.8,2.7,2.4,5.6,3.8,9.1,4.5,7.8,1.6,15.5,3.6,23.4,5,25.3,4.4,41.3,19.5,49.8,43,4.8,13.3,8.9,26.9,12.8,40.5,3.9,13.6,4.3,27.4,2,41.5-2.9,17.8-12.1,32.5-22.2,46.9-6.6,9.4-14.8,17-25.6,21.3-1.9.8-4.3,1.2-4.3,4.6,8.3-1.9,16-5.2,23-9.5,35.9-21.8,63.6-51.7,85.1-87.5,1.6-2.7,3.7-5.5,3.6-9-.6-15.6-1.4-31.2-1.8-46.8-.3-8.6-1.1-17.1,2.3-25.7,8.8-21.8,10.6-44.4,5-67.3Z" />
            <path class="cls-6"
              d="M226.9,272.1c-2.2-11.5,9.4-21.4,19.9-22.3,20.7-1.7,41.4-1.7,62.1,0,11.2,1,21.8,11,19.8,21.3-4.5-1.8-8.1-5.5-13.2-6.1-13.4-1.6-23.7,7.8-24.8,22.2-.9,12.3,2.4,23,10.6,32.2,2,2.3,2,3.4,0,5.7-12.3,13.4-32.5,15.9-46.4,0-2.1-2.4-2.3-3.6-.2-6.2,9.3-11.1,13.2-23.7,8.8-38-5.1-16.7-21.3-21.3-34.8-10.1-.5.4-1.1.8-1.8,1.3Z" />
            <path class="cls-4"
              d="M272.3,350.1c0-2.7-.8-3.7-3.6-4.2-6.9-1.3-13-4.6-18.1-9.5-8.7-8.5-17.5-17-26.1-25.6-6.2-6.2-9.3-13.7-9.2-22.6,0-8.3,0-16.5,0-24.9-3.6,1-7.5,1.1-10.9,2.9-22.6,2.6-39.3,9.2-50.2,39.1-4.3,11.7-7.8,23.8-11.2,35.9-10.2,36.1,2.5,65.8,27.5,91.1,7.8,7.9,18,11.6,29.4,9.4.5,0,1.1-.2,1.6-.3,1.8.2,3.1-.7,4.5-1.6,21.1-14.3,42.2-28.5,63.4-42.7,2-1.3,3-2.7,3-5.2-.1-13.8-.1-27.7,0-41.5Z" />
            <path class="cls-6"
              d="M211.4,35.9c-6.9-10.7-16.8-17.4-28.8-21.2-11.9-3.7-23.6-2.4-35.2,1.7-17.9,6.4-35.6,9.5-53.4-1.4-6.3-3.9-14.2-4.4-21.8-3.5-20.1.6-35.3,9.9-45.7,26.8-6.3,10.2-7.6,21.6-8.2,33.4-.8,17.2-2.7,34.3-4,51.4-1.1,13.9-2,27.8-2.9,41.7-.2,3.3.7,6.1,3.6,8,2.9,1.9,6,2,8.7-.1,2.8-2.3,6.2-3.9,8.1-7.1,0,0,0,0,0,0,1.2-.8,2.5-1.4,3.6-2.4,8.8-7.6,17.6-15.2,26.4-22.8,1.9-1.7,3.8-3.3,6.6-3.4,17.9-.6,33.9-7.2,49.2-16.1,36.1-21,65.6-49.7,93.8-80,1.9-2,1.2-3.3,0-5.1Z" />
            <path class="cls-8"
              d="M254.5,290.5c-.6,8-2.5,14.7-7.1,20.5-2.2,2.8-4.1,3.8-6.8.5-3.5-4.2-8-7.4-11.1-12-2.1-3.2-2.5-6.2-1.1-9.7,1.8-4.7,4.7-8.7,8.6-11.7,5.3-4.2,11.9-2.5,15.1,3.4,1.7,3.2,1.3,6.7,2.4,9.1Z" />
            <path class="cls-8"
              d="M301.7,290.9c-.3-2.7.2-5.9,1.5-9,2.7-6.4,9.8-8.3,15.3-3.9,4.1,3.2,7,7.3,8.9,12.2,1.7,4.5.2,8.2-2.8,11.4-3.3,3.6-7,6.9-10.3,10.5-1.6,1.7-2.7,1.6-4.4,0-5-4.6-8.2-12.2-8.2-21.2Z" />
            <path
              d="M186.8,177.6c-21.7,0-39.8-13.2-43.7-29-2.9-11.5,2.5-21.6,13.7-25.6,11.3-4,21.9-1.5,32,3.8,4.7,2.4,8.9,5.7,12.4,9.8,6.8,8,10.4,16.9,6.4,27.2-4.2,10.9-13.7,13.6-20.7,13.9Z" />
            <path
              d="M368.3,177.6c-6.4-.3-14.6-3-19.4-11.8-4.6-8.4-2.6-16.6,2-24.3,8-13.3,27.1-21.9,41.5-20,19.8,2.7,27.6,21.8,14.4,38.8-8.2,10.7-22.1,17.3-38.6,17.3Z" />
            <path
              d="M379.6,238.9c-13.6,0-24.3-11-24.3-24.7,0-12.8,11.6-24.3,24.5-24.4,13.6-.1,24.7,11.3,24.7,25.2,0,13.8-10.7,24-24.9,23.9Z" />
            <path
              d="M175.2,238.9c-13.3,0-24.4-11.2-24.2-24.3.1-13.5,12-25.1,25.3-24.8,13.3.3,23.9,11.6,23.9,25.3,0,13.8-10.6,23.9-24.9,23.8Z" />
            <path class="cls-4"
              d="M183,166.7c-12.3-.1-25.6-9.1-29-19.5-2.2-6.8.7-12.3,7.6-14.3,12.5-3.6,30.4,5.3,35.4,17.5,3.9,9.7-1.9,16.5-13.9,16.3Z" />
            <path class="cls-4"
              d="M373.7,166.7c-7-.1-12.3-1-15.1-6.3-2.9-5.4-.6-10.5,2.7-14.7,7.9-9.9,18.1-15.1,31-13.1,9.3,1.5,12.8,8.6,8.4,16.9-6,11.3-16.2,16.1-26.9,17.2Z" />
            <path class="cls-7"
              d="M387.1,209.5c-.1,4-3.5,7.3-7.4,7.1-3.9-.2-7.1-3.6-7-7.6.1-4,3.6-7.3,7.5-7.1,4,.1,7.1,3.5,7,7.6Z" />
            <path class="cls-7"
              d="M182.9,209.2c0,4.1-3.1,7.4-7.1,7.5-3.9,0-7.3-3.3-7.4-7.3,0-3.9,3.3-7.4,7.2-7.5,3.9,0,7.3,3.2,7.3,7.3Z" />
          </g>
        </g>
        <g>
          <path class="cls-3"
            d="M689,171.7c9.8-6.3,20.7-10.6,32.6-12.7h.7c1.3-.4,4.2-1.1,8.8-2,6.1-1.3,14.2-2,24.5-2h52.9v102.8h-52.9c-12.6,0-23.7,4.2-33.3,12.7-9.4,7.8-14,18.1-14,30.7v193.2h-102.2v-239.9l82.9-82.9Z" />
          <path class="cls-3"
            d="M1021.5,155c31.5,0,60.3,7.7,86.3,23.2,26,15.5,46.7,36.2,62.2,62.3,15.4,26.1,23.2,55.1,23.2,86.8s-7.7,60.8-23.2,87c-15.5,26.2-36.2,47.1-62.2,62.5-26,15.5-54.8,23.2-86.3,23.2s-60.3-7.7-86.3-23.2c-26-15.4-46.7-36.3-62.2-62.5-15.5-26.2-23.2-55.2-23.2-87s7.7-60.7,23.2-86.8c15.4-26.1,36.2-46.9,62.2-62.3,26-15.4,54.8-23.2,86.3-23.2ZM1022.2,398.8c19.8,0,36.7-7,50.6-21.1,13.9-14,20.9-30.9,20.9-50.8s-7-36.7-20.9-50.8c-13.9-14-30.8-21.1-50.6-21.1s-36.3,7-50.3,21.1c-13.9,14-20.9,31-20.9,50.8s7,36.7,20.9,50.8c13.9,14,30.7,21.1,50.3,21.1Z" />
          <path class="cls-3"
            d="M1412.8,0v160.2h73.4v93h-73.4v241.2h-101.5v-241.2h-75.7v-93h75.7v-58.7L1412.8,0Z" />
          <path class="cls-3"
            d="M1701.7,0v160.2h73.4v93h-73.4v241.2h-101.5v-241.2h-75.7v-93h75.7v-58.7L1701.7,0Z" />
        </g>
      </g>
    </g>
  </g>
</svg>